<?xml version="1.0" encoding="UTF-8"?>
<svg version="1.1" viewBox="0 0 1600 1776" width="100" height="111" xmlns="http://www.w3.org/2000/svg">
<path transform="translate(1170,439)" d="m0 0h177l39 1 23 1 12 2 2 2 1 50 1 182v351l-2 226-1 308-1 60-2 29-4 15-6 14-8 14-11 16-9 10-12 12-8 7-7 6-16 7-21 6-4 4 1 5 13 4 2 3-2 2h-1060l-5-4 1-5 10 4h3l1-2 7-1-1-4-10-6-14-3-11-4-10-7-5-4-7-8-10-9-9-10-7-10-10-16-14-24-3-11-2-56-1-268-1-487 1-90 1-37 3-162 2-59 3-45 2-2 9-1 22-1 45-1 529-3h205zm-719 275-3 1-1 11-1 34-1 60-1 154v297l1 123 1 52 2 47 2 12 6 1 28 1h112l14-1 3-3 3-28 2-51 1-47v-185l-1-332-1-92-1-36-1-15-1-1-7-1-32-1zm532 1-1 1-1 70-1 152-1 116v350l1 38 2 31 4 24 2 7 2 1 25 2h88l38-2 3-1 2-9 2-18 1-27 1-55 1-365v-199l-1-97-1-15-1-1-27-2-25-1z" fill="#F52E10"/>
<path transform="translate(532)" d="m0 0h542l3 8 5 6 2 1v2l4 2 16 16 9 11 7 8 8 10 14 17 9 10 11 14 20 26 13 16 10 13 9 10 8 2 40 1 91 1 247 1v180l-104 1-67 1h-127l-135-1-866-1-223-1-69-1-9-1v-162l8 4h8l6-8 3-3 2-3 6-2h67l117 1h83l63-1 13-1 12-6 2-4 14-15 4-5h2l2-4 7-7 9-11 9-10 8-10 13-16 14-15 12-16 11-13 14-16 15-9 5-6 3-7z" fill="#F62E10"/>
<path transform="translate(976,720)" d="m0 0 2 3-2 4 2 2h2l1-8h1v65l-1 152-1 116v350l1 38 2 31 4 24 1 7 2 1h-3l-1-1 3 8-5-2-5-6v-2l-4-2-3-3-4-15-1-20v-15l-1-13v-12l1-10v-48l-2-29v-139l1-49v-121l-1-22v-64l-2-15 1-13v-28l1-3-1-6 1-7v-11-3l-1-11 1-14v-63l1-19 2-6 1-9 4-10z" fill="#DF615B"/>
<path transform="translate(525,708)" d="m0 0h24l10 1 7-1 5 1 11 1 1-2 12 2 8 2v2h9l4-1 8 2 4 2 3 3 7-1v2h3l1 8-1 2h2l2 19 1 91v52l-1 3 1 3v20l-1 6 1 12v24l-1 27v14l-1 12-1 2 2 1-1 5-1 10-1 7 1 9-2 17 1 4-1 9-1 6v10l-1 5h-2l1 6-2 3-3-1v-5l2-5-1-5 4-1h-2l-1-3-2-1 1-10v-11l-1-3v-11l-1-7-1-2h2l-2-15-2-6-1-4-1 8v7h-2l1 12v14l-4 1 1 4h2v4h-2l-2 3 6 6-1 9v3h-3v6l-2 4-1 3v12l-1 19h-1l-1-273-1-92-1-36-1-15-7-1-32-1-86-1v-1l19-2 3-1h11z" fill="#DF5F59"/>
<path transform="translate(439,804)" d="m0 0h2l2 21-1 2 1 3 1 11h1v430l1 123 1 52 2 47 1 12-9-9-3-1-1-2-1-9-2-7-1-8-1-14-1-16-1-6v-11l1-6v-36l2-10v-18l2-12v-14l2-8v-12l1-8 1-11-1-2 1-9 1-12 1-14 1-33v-147l-1-12-1-9 1-9-1-7 1-4h-2l-1-6v-7l-1-3-1-7-1-2-1-10-3-15-1-15-1-3 1-3h-2l-1-6v-6l-1-3v-40l1-22v-14l1-14 4-11v-2h2l-1-5 3-1 2-14 1-4z" fill="#E0625C"/>
<path transform="translate(1066)" d="m0 0h8l3 8 5 6 2 1v2l4 2 16 16 9 11 7 8 8 10 14 17 9 10 11 14 20 26 13 16 10 13 9 10 8 2 40 1 9 1v2l-16 2-3 1h-14l-14-2-12-3v-2l-9-1-11-6-5-4-5-3v-2h-2l-6-7-8-7-3-3-6-9-4-5-3-2-3-7-8-9-1-3-8-7-2-4-4-4v-2l-3-1-3-8-3-3-4-5-3-6-1-3h-2l-6-8-1-4-3-3-7-9-6-7v-2l-4-2-4-6-3-5-3-6 1-2h-2z" fill="#F87B70"/>
<path transform="translate(171,1389)" d="m0 0h1l1 159 1 2v10l2 14v10l3 20 3 12 2 10 4 16 3 7 3 4v3h2l3 10 2 3v3h2l5 11v3h2v3l3 1 3 6 4 2v2l4 2 8 10 7 11 4 5 4 4v2h3l4 4v3h2v3l5 2 5 5 4 3v2l3 1-11-1-14-5-10-7-5-4-7-8-10-9-9-10-7-10-10-16-14-24-3-11-2-56z" fill="#F87A6F"/>
<path transform="translate(443,1221)" d="m0 0h1l1 50 1 123 1 52 2 47 1 12-9-9-3-1-1-2-1-9-2-7-1-8-1-14-1-16-1-6v-11l1-6v-36l2-10v-18l2-12v-14l2-8v-12l1-8 1-11-1-2 1-9 1-12 1-14 1-28z" fill="#E0625C"/>
<path transform="translate(1424,677)" d="m0 0h1v351l-1 126-1 50-2-2v-7l-1-5-1-10-1-3v-24l-1-8v-11l-1-23v-150l1-39v-17l1-21v-43l-1-4 2-6 2 1v14l1 9v28l-1 10-1 3 2 9v27l1 3-1 8 1 5-1 4 1 12v-253z" fill="#E56962"/>
<path transform="translate(513,26)" d="m0 0 2 1-4 4h-2l-4 8h-2l-2 5-3 4h-2v3h-2l-7 14-4 4-4 5h-2l-1 5-3 3-3 6-4 4-1 3h-2l-1 4-5 7h-2l-1 5h-2v2h-2l-2 6-9 10-1 2h-2l-2 4-4 1-2 4-9 9h-2v2l-4 1-1 3-4 2-2 3h-2v2l-9 1 2-4 10-10 1-2h2l2-4 7-7 9-11 9-10 8-10 13-16 14-15 12-16 11-13 14-16z" fill="#F87A6F"/>
<path transform="translate(619,1226)" d="m0 0h1l2 57v91l1 44v35l1 23 1 10v10l-4 8-6 2h-5l2-1 3-30 2-51 1-47z" fill="#E1655F"/>
<path transform="translate(1397,441)" d="m0 0h12l12 2 2 2 1 50v178l-3-1 1-12-2-10 2-4-3-2 1-6-1-9v-21l-1-9 1-4v-27l1-2-1-10 1-5v-58l1-8-1-2v-8l-2-2v-5l-3-2-3-11-2-9-2-4h-11z" fill="#F87C71"/>
<path transform="translate(1417,1651)" d="m0 0h1l-1 9-8 20-8 14-11 16-9 10-12 12-8 7-7 6-16 7-3-1 5-5h2l3-6 5-2 6-7 10-8 3-4 2-3h2l2-5 5-5 5-7h2l4-8 3-3 4-9h2v-2h2l1-5h4l3-9 1-2h2v-2h2z" fill="#F87A6F"/>
<path transform="translate(171,714)" d="m0 0h1l1 41v67l-1 20v348l-1 138h-1l-1-487 1-90z" fill="#F87D72"/>
<path transform="translate(1055,707)" d="m0 0 11 1 1-1h17l10 2h25l16 2 7 2 5 1 1 4-27-1-25-1-98-1-1-3 11-1 1-2h2l2 2 9-2h5 2l13 1 3-1h10z" fill="#F87A6F"/>
<path transform="translate(981,721)" d="m0 0h1v65l-1 152h-1l-1-100-1-1v-7l-2-7-1-11v-13l-1-4h-2l1-7 1-4-1-4h2l1-7 2-6v-10l1-7v-7l1-3h-2l1-11z" fill="#F87E73"/>
<path transform="translate(1150,1030)" d="m0 0h1l1 116 1 5-1 6v7l1 5-1 15 1 5v8l-1 5v10l1 13-1 7v8l1 12-1 52v29l1 4-1 5v27h-2z" fill="#F88B81"/>
<path transform="translate(525,708)" d="m0 0h24l10 1 7-1 5 1 11 1 1-2 12 2 8 2v2l11 1v1l-39-1-86-1v-1l19-2 3-1h11z" fill="#F87B70"/>
<path transform="translate(516,1507)" d="m0 0h80l-2 2-6 2-13 2-2-1h-5l-1 1-11 1-4 1h-12l-7 1h-8l-6 2-2-3v2l-3 1-6-2-4 1h-16l-13-1-7-1-1-2h23l9 1 4-1 10 1 5-1 13-2 4 1 8-1 2 1 2-2 6 1 6-1h3l3-1-49-1z" fill="#DF5F59"/>
<path transform="translate(1150,1373)" d="m0 0 2 3v18l1 12v34l-1 9 1 11v24l-3 12-5 3 2-22 1-27 1-55z" fill="#F87E74"/>
<path transform="translate(171,714)" d="m0 0h1l1 41v67l-1 20v24l-2 2-1-1v-26l1-90z" fill="#F87F75"/>
<path transform="translate(1149,719)" d="m0 0 1 4h2l3 9 1 9v7l-1 6 1 4-3 6 1 7-1 4 1 3-2 18-1 35h-1z" fill="#F88177"/>
<path transform="translate(1150,1240)" d="m0 0h2l1 12-1 52v29l1 4-1 5v27h-2z" fill="#F8786D"/>
<path transform="translate(1417,1125)" d="m0 0 3 1 1 8v27l2 4v39l-2-2v-7l-1-5-1-10-1-3v-24l-1-8z" fill="#DF605A"/>
<path transform="translate(619,1226)" d="m0 0h1l2 57-1 53-2 1z" fill="#E86961"/>
<path transform="translate(516,1507)" d="m0 0h80l-2 2-6 2-13 2-2-1h-5l-1 1-11 1-3 1 2-4 4-1h3l3-1-49-1z" fill="#E7645B"/>
<path transform="translate(443,1382)" d="m0 0 2 2 1 10v58l-2-3-1-6-1-23v-21z" fill="#F6452C"/>
<path transform="translate(1412,483)" d="m0 0 3 1 1 10 2 3v14l-1 6 1 2h-2l1 7-1 7h2l-1 7-2 1-2-6v-4h2l-2-6 1-4-1-5v-15l-1-1 1-12z" fill="#DF605A"/>
<path transform="translate(1419,831)" d="m0 0 2 1v14l1 9v28l-1 10-3 3v-55l-1-4z" fill="#DF605A"/>
<path transform="translate(263,1767)" d="m0 0 10 4h3l1-2 7-1 5 7v1h-22l-5-4z" fill="#F88177"/>
<path transform="translate(1420,1115)" d="m0 0h3v50l-3-4v-32l-2-4h2z" fill="#F62E10"/>
<path transform="translate(981,721)" d="m0 0h1v65h-1l-1-31-1-5v-7l1-3h-2l1-11z" fill="#F99E96"/>
<path transform="translate(1422,967)" d="m0 0 2 2v54l-3-3 2-8-2-1-1-5 2-4-2-3 1-3h2v-4h-2v-6l1-6v-6l-1-3z" fill="#F52F11"/>
<path transform="translate(1420,1166)" d="m0 0h3v38l-2-2v-7l-1-5-1-10-1-3z" fill="#E2574D"/>
<path transform="translate(1314,1768)" d="m0 0 13 3 2 3-2 2h-20l1-2 5-1z" fill="#F88B81"/>
<path transform="translate(170,842)" d="m0 0h2v24l-2 2-1-1v-23z" fill="#F9A39C"/>
<path transform="translate(442,728)" d="m0 0 2 1-1 13-1 5-1 13-2-2v-18z" fill="#DF5E58"/>
<path transform="translate(1159,1446)" d="m0 0 2 4v28l-2 3-1-9v-22z" fill="#DF605A"/>
<path transform="translate(1423,647)" d="m0 0h1v26l-3-1 1-12-2-10z" fill="#F8786D"/>
<path transform="translate(21,180)" d="m0 0 3 1v2l-2 1-12 1h-10v-1h6v-2z" fill="#F8786D"/>
<path transform="translate(1415,524)" d="m0 0h2v7l-1 2h2l-1 7-2 1-2-6v-4h2l-1-6z" fill="#DF5D56"/>
<path transform="translate(984,1487)" d="m0 0h1l3 17 2 1h-3l-4-5-1-12z" fill="#F8867C"/>
<path transform="translate(1422,967)" d="m0 0 2 2v19h-3l1-10-1-7z" fill="#F52F12"/>
<path transform="translate(1419,788)" d="m0 0h1l1 8v3l-1 8-2 1v-18z" fill="#DF605A"/>
<path transform="translate(1423,988)" d="m0 0h1v15l-4-4 1-3h2v-4h-2z" fill="#F62E10"/>
<path transform="translate(513,26)" d="m0 0 2 1-4 4h-2l-2 4-3 1 2-4z" fill="#F88479"/>
<path transform="translate(440,747)" d="m0 0h2l-1 13-2-2v-9z" fill="#DF605A"/>
<path transform="translate(181,446)" d="m0 0 3 1-3 1 1 6-3 3v-9z" fill="#F8786D"/>
<path transform="translate(1335,1774)" d="m0 0 4 2-4-1z" fill="#FDFDFD"/>
<path transform="translate(527,1)" d="m0 0 2 1-2 1z" fill="#FDFDFD"/>
</svg>
