<?xml version="1.0" encoding="UTF-8"?>
<svg version="1.1" viewBox="0 0 2048 365" width="1181" height="211" xmlns="http://www.w3.org/2000/svg">
<path transform="translate(177,1)" d="m0 0h9v40l-1 1-27 3-19 5-18 8-16 9-14 11-8 7-7 8-11 15-11 21-7 21-3 18v28l3 19 7 21 11 21 9 12 9 10 10 10 14 10 14 8 16 7 17 5 21 3h23l20-3 20-6 21-10 15-10 14-12 11-12 12-18 9-19 6-20 4-29 8-1h25l8 1v17l-4 24-6 20-9 20-8 14-10 14-11 13-13 13-17 13-13 8-15 8-21 8-18 5-19 3-25 1-24-2-20-4-24-8-16-8-14-8-14-10-12-11-7-6-7-8-13-17-10-17-8-17-6-18-4-19-2-18v-20l2-19 4-19 6-18 11-23 12-18 9-11 9-10 13-12 15-11 17-10 17-8 21-7 19-4z" fill="#456DFC"/>
<path transform="translate(444,23)" d="m0 0h303l2 1v29l-1 1h-133v277l-1 1h-35v-278h-136v-30z" fill="#466EFC"/>
<path transform="translate(1247,23)" d="m0 0h302l1 1v30l-133 1-1 277h-33v-278h-136z" fill="#466EFC"/>
<path transform="translate(1694,87)" d="m0 0h11v33l-1 1-18 2-17 5-17 9-11 9-9 10-8 13-6 14-3 14-1 16 2 15 5 17 8 14 11 13 9 8 13 8 14 6 13 3 8 1h15l17-3 16-6 11-6 11-9 8-8 7-10 7-14 4-13 3-20h34v12l-3 17-6 18-9 17-9 12-9 10-8 8-15 11-15 8-21 7-15 3h-31l-20-4-16-6-17-9-12-9-12-11-8-9-10-15-7-15-6-20-2-15v-18l3-20 6-18 10-19 9-12 9-10 10-9 14-9 16-8 15-5 15-3z" fill="#456DFC"/>
<path transform="translate(892,87)" d="m0 0h11v33l-1 1-18 2-16 5-16 8-9 7-12 12-8 13-6 13-4 17v23l4 17 5 12 6 10 9 11 9 8 14 9 15 6 12 3 9 1h14l17-3 14-5 13-7 10-8 7-6 10-14 7-15 4-15 2-16h34v13l-4 20-6 16-8 15-10 14-12 13-16 12-16 9-16 6-15 4-7 1h-31l-15-3-16-5-17-8-16-11-15-14-10-13-8-14-6-14-4-13-2-11-1-18 2-20 5-19 10-21 11-16 9-10 11-9 10-7 19-10 15-5 15-3z" fill="#456DFC"/>
<path transform="translate(299,41)" d="m0 0 4 1 13 10 14 11 8 6-2 4-8 10-36 44-13 16-72 88-7 6-6 2h-12l-10-5-13-11-14-11-11-9-16-13-14-11-4-3 2-4 11-13 9-11 7-9 4 1 14 11 17 14 14 11 5 4 3 1 2-4 11-13 11-14 11-13 8-10 18-22 14-17 11-14 12-14 8-10z" fill="#FEAD0D"/>
<path transform="translate(1855,23)" d="m0 0h28l7 1v307l-1 1h-35v-308z" fill="#456DFC"/>
<path transform="translate(1202,100)" d="m0 0 7 6 10 10 7 6-1 4-42 42-8 7-34 34v2l8 7 37 37 8 7 47 47-2 4-19 19-3 1-8-7-37-37-8-7-41-41-8-7-14-14-3-7v-7l4-8 13-13 8-7 43-43 8-7z" fill="#456DFC"/>
<path transform="translate(2e3 100)" d="m0 0 7 6 15 15 2 1-1 4-33 33-8 7-42 42h-2l3 5 10 9 41 41 2 1v2l4 2 41 41-2 4-9 9-8 7-4 4-4-2-40-40-8-7-34-34-8-7-23-23-3-6v-9l5-8 22-22 8-7 31-31 8-7z" fill="#456DFC"/>
<path transform="translate(1052,85)" d="m0 0h36v247h-35l-1-1z" fill="#456DFC"/>
<path transform="translate(1515,168)" d="m0 0h35v164h-35z" fill="#456DFC"/>
<path transform="translate(715,168)" d="m0 0h33l1 1v162l-1 1h-33z" fill="#456DFC"/>
<path transform="translate(726,86)" d="m0 0h12l9 4 7 8 3 10-2 11-6 8-5 4-5 2h-14l-8-4-7-8-2-5v-12l5-10 6-5z" fill="#456DFC"/>
<path transform="translate(1527,86)" d="m0 0h13l8 4 6 5 4 9v11l-5 10-6 5-7 3h-13l-8-4-7-8-3-9 1-9 4-8 8-7z" fill="#456DFC"/>
</svg>
